<?xml version="1.0" encoding="utf-8"?>
<svg version="1.1" xmlns:xlink="http://www.w3.org/1999/xlink" width="14px" height="14px" xmlns="http://www.w3.org/2000/svg">
  <g transform="matrix(1 0 0 1 -1024 -63 )">
    <path d="M 9.251302083333332 11.584635416666668  C 9.305989583333332 11.529947916666668  9.333333333333332 11.460069444444443  9.333333333333332 11.375  L 9.333333333333332 9.916666666666666  C 9.333333333333332 9.831597222222221  9.305989583333332 9.76171875  9.251302083333332 9.70703125  C 9.196614583333332 9.65234375  9.12673611111111 9.625  9.041666666666668 9.625  L 8.166666666666668 9.625  L 8.166666666666668 4.958333333333333  C 8.166666666666668 4.873263888888889  8.139322916666668 4.803385416666667  8.084635416666668 4.748697916666667  C 8.029947916666668 4.694010416666667  7.9600694444444455 4.666666666666667  7.875 4.666666666666667  L 4.958333333333334 4.666666666666667  C 4.87326388888889 4.666666666666667  4.803385416666666 4.694010416666667  4.748697916666666 4.748697916666667  C 4.694010416666666 4.803385416666667  4.666666666666666 4.873263888888889  4.666666666666666 4.958333333333333  L 4.666666666666666 6.416666666666667  C 4.666666666666666 6.501736111111111  4.694010416666666 6.571614583333333  4.748697916666666 6.626302083333333  C 4.803385416666666 6.680989583333333  4.87326388888889 6.708333333333333  4.958333333333334 6.708333333333333  L 5.833333333333334 6.708333333333333  L 5.833333333333334 9.625  L 4.958333333333334 9.625  C 4.87326388888889 9.625  4.803385416666666 9.65234375  4.748697916666666 9.70703125  C 4.694010416666666 9.76171875  4.666666666666666 9.831597222222221  4.666666666666666 9.916666666666666  L 4.666666666666666 11.375  C 4.666666666666666 11.460069444444443  4.694010416666666 11.529947916666668  4.748697916666666 11.584635416666668  C 4.803385416666666 11.639322916666668  4.87326388888889 11.666666666666668  4.958333333333334 11.666666666666668  L 9.041666666666668 11.666666666666668  C 9.12673611111111 11.666666666666668  9.196614583333332 11.639322916666668  9.251302083333332 11.584635416666668  Z M 8.084635416666668 3.41796875  C 8.139322916666668 3.36328125  8.166666666666668 3.293402777777777  8.166666666666668 3.208333333333333  L 8.166666666666668 1.75  C 8.166666666666668 1.6649305555555547  8.139322916666668 1.5950520833333328  8.084635416666668 1.5403645833333328  C 8.029947916666668 1.4856770833333328  7.9600694444444455 1.4583333333333328  7.875 1.4583333333333328  L 6.125 1.4583333333333328  C 6.039930555555556 1.4583333333333328  5.970052083333334 1.4856770833333328  5.915364583333334 1.5403645833333328  C 5.860677083333334 1.5950520833333328  5.833333333333334 1.6649305555555547  5.833333333333334 1.75  L 5.833333333333334 3.208333333333333  C 5.833333333333334 3.293402777777777  5.860677083333334 3.36328125  5.915364583333334 3.41796875  C 5.970052083333334 3.47265625  6.039930555555556 3.5  6.125 3.5  L 7.875 3.5  C 7.9600694444444455 3.5  8.029947916666668 3.47265625  8.084635416666668 3.41796875  Z M 13.061197916666668 3.486328125  C 13.68706597222222 4.5588107638888875  14 5.7300347222222205  14 7  C 14 8.269965277777779  13.68706597222222 9.441189236111109  13.061197916666668 10.513671875  C 12.435329861111112 11.58615451388889  11.58615451388889 12.43532986111111  10.513671875 13.061197916666668  C 9.441189236111112 13.687065972222223  8.269965277777779 14  7 14  C 5.730034722222222 14  4.558810763888889 13.687065972222223  3.486328125 13.061197916666668  C 2.413845486111111 12.43532986111111  1.564670138888889 11.58615451388889  0.9388020833333334 10.513671875  C 0.31293402777777773 9.441189236111109  0 8.269965277777779  0 7  C 0 5.7300347222222205  0.31293402777777773 4.5588107638888875  0.9388020833333334 3.486328125  C 1.564670138888889 2.4138454861111107  2.413845486111111 1.5646701388888875  3.486328125 0.9388020833333328  C 4.558810763888889 0.31293402777777657  5.730034722222222 0  7 0  C 8.269965277777779 0  9.441189236111112 0.31293402777777657  10.513671875 0.9388020833333328  C 11.58615451388889 1.5646701388888875  12.435329861111112 2.4138454861111107  13.061197916666668 3.486328125  Z " fill-rule="nonzero" fill="#000000" stroke="none" transform="matrix(1 0 0 1 1024 63 )" />
  </g>
</svg>