<?xml version="1.0" encoding="utf-8"?>
<svg version="1.1" xmlns:xlink="http://www.w3.org/1999/xlink" width="11px" height="11px" xmlns="http://www.w3.org/2000/svg">
  <g transform="matrix(1 0 0 1 -772 -158 )">
    <path d="M 10.74074074074074 8.222222222222221  C 10.91358024691358 8.39506172839506  11 8.604938271604937  11 8.851851851851851  C 11 9.098765432098766  10.91358024691358 9.30864197530864  10.74074074074074 9.481481481481481  L 9.481481481481481 10.74074074074074  C 9.308641975308644 10.91358024691358  9.098765432098766 11  8.851851851851851 11  C 8.60493827160494 11  8.395061728395063 10.91358024691358  8.222222222222223 10.74074074074074  L 5.5 8.018518518518519  L 2.777777777777778 10.74074074074074  C 2.6049382716049387 10.91358024691358  2.3950617283950617 11  2.148148148148148 11  C 1.9012345679012348 11  1.6913580246913582 10.91358024691358  1.5185185185185186 10.74074074074074  L 0.25925925925925924 9.481481481481481  C 0.08641975308641983 9.30864197530864  0 9.098765432098766  0 8.851851851851851  C 0 8.604938271604937  0.08641975308641983 8.39506172839506  0.25925925925925924 8.222222222222221  L 2.9814814814814814 5.5  L 0.25925925925925924 2.7777777777777772  C 0.08641975308641983 2.6049382716049374  0 2.3950617283950617  0 2.148148148148148  C 0 1.9012345679012346  0.08641975308641983 1.6913580246913564  0.25925925925925924 1.518518518518519  L 1.5185185185185186 0.2592592592592593  C 1.6913580246913582 0.08641975308641936  1.9012345679012348 0  2.148148148148148 0  C 2.3950617283950617 0  2.6049382716049387 0.08641975308641936  2.777777777777778 0.2592592592592593  L 5.5 2.981481481481482  L 8.222222222222223 0.2592592592592593  C 8.395061728395063 0.08641975308641936  8.60493827160494 0  8.851851851851851 0  C 9.098765432098766 0  9.308641975308644 0.08641975308641936  9.481481481481481 0.2592592592592593  L 10.74074074074074 1.518518518518519  C 10.91358024691358 1.6913580246913564  11 1.9012345679012346  11 2.148148148148148  C 11 2.3950617283950617  10.91358024691358 2.6049382716049374  10.74074074074074 2.7777777777777772  L 8.018518518518517 5.5  L 10.74074074074074 8.222222222222221  Z " fill-rule="nonzero" fill="#000000" stroke="none" transform="matrix(1 0 0 1 772 158 )" />
  </g>
</svg>